name Walk6.mot
datacolumns 19
datarows 27
range 2.13500000 2.16100000
endheader

                time	   L_ground_force_vx	   L_ground_force_vy	   L_ground_force_vz	   L_ground_force_px	   L_ground_force_py	   L_ground_force_pz	   R_ground_force_vx	   R_ground_force_vy	   R_ground_force_vz	   R_ground_force_px	   R_ground_force_py	   R_ground_force_pz	   L_ground_torque_x	   L_ground_torque_y	   L_ground_torque_z	   R_ground_torque_x	   R_ground_torque_y	   R_ground_torque_z	
          2.13500000	        -22.18325347	        675.48115652	        -41.07526341	          0.15707614	          0.00000000	          0.10950549	          0.00000000	          0.00000000	          0.00000000	          0.00000000	          0.00000000	          0.00000000	          0.00000000	          8.73508620	          0.00000000	          0.00000000	          0.00000000	          0.00000000	
          2.13600000	        -21.79547299	        674.44528589	        -41.02517052	          0.15732045	          0.00000000	          0.10963398	          0.00000000	          0.00000000	          0.00000000	          0.00000000	          0.00000000	          0.00000000	          0.00000000	          8.68461856	          0.00000000	          0.00000000	          0.00000000	          0.00000000	
          2.13700000	        -21.41372906	        673.32753607	        -41.00837855	          0.15750656	          0.00000000	          0.10976167	          0.00000000	          0.00000000	          0.00000000	          0.00000000	          0.00000000	          0.00000000	          0.00000000	          8.64878701	          0.00000000	          0.00000000	          0.00000000	          0.00000000	
          2.13800000	        -21.04215193	        672.14542976	        -41.02768820	          0.15764818	          0.00000000	          0.10990741	          0.00000000	          0.00000000	          0.00000000	          0.00000000	          0.00000000	          0.00000000	          0.00000000	          8.62575810	          0.00000000	          0.00000000	          0.00000000	          0.00000000	
          2.13900000	        -20.67969131	        670.98431602	        -41.07214530	          0.15778419	          0.00000000	          0.11008388	          0.00000000	          0.00000000	          0.00000000	          0.00000000	          0.00000000	          0.00000000	          0.00000000	          8.61094497	          0.00000000	          0.00000000	          0.00000000	          0.00000000	
          2.14000000	        -20.32358314	        669.88808203	        -41.12465615	          0.15793475	          0.00000000	          0.11027099	          0.00000000	          0.00000000	          0.00000000	          0.00000000	          0.00000000	          0.00000000	          0.00000000	          8.60128923	          0.00000000	          0.00000000	          0.00000000	          0.00000000	
          2.14100000	        -19.96907466	        668.81692068	        -41.17393611	          0.15810060	          0.00000000	          0.11042450	          0.00000000	          0.00000000	          0.00000000	          0.00000000	          0.00000000	          0.00000000	          0.00000000	          8.59381680	          0.00000000	          0.00000000	          0.00000000	          0.00000000	
          2.14200000	        -19.61323191	        667.72042677	        -41.21904091	          0.15827839	          0.00000000	          0.11051752	          0.00000000	          0.00000000	          0.00000000	          0.00000000	          0.00000000	          0.00000000	          0.00000000	          8.58558389	          0.00000000	          0.00000000	          0.00000000	          0.00000000	
          2.14300000	        -19.26058988	        666.59064768	        -41.26030172	          0.15845497	          0.00000000	          0.11056733	          0.00000000	          0.00000000	          0.00000000	          0.00000000	          0.00000000	          0.00000000	          0.00000000	          8.57459859	          0.00000000	          0.00000000	          0.00000000	          0.00000000	
          2.14400000	        -18.91923840	        665.45572666	        -41.29225514	          0.15862182	          0.00000000	          0.11061609	          0.00000000	          0.00000000	          0.00000000	          0.00000000	          0.00000000	          0.00000000	          0.00000000	          8.55747935	          0.00000000	          0.00000000	          0.00000000	          0.00000000	
          2.14500000	        -18.58917428	        664.35009020	        -41.30873131	          0.15879790	          0.00000000	          0.11068777	          0.00000000	          0.00000000	          0.00000000	          0.00000000	          0.00000000	          0.00000000	          0.00000000	          8.53022274	          0.00000000	          0.00000000	          0.00000000	          0.00000000	
          2.14600000	        -18.26034518	        663.28586130	        -41.31010303	          0.15901264	          0.00000000	          0.11078008	          0.00000000	          0.00000000	          0.00000000	          0.00000000	          0.00000000	          0.00000000	          0.00000000	          8.49361767	          0.00000000	          0.00000000	          0.00000000	          0.00000000	
          2.14700000	        -17.92558563	        662.25244842	        -41.30217539	          0.15926870	          0.00000000	          0.11089313	          0.00000000	          0.00000000	          0.00000000	          0.00000000	          0.00000000	          0.00000000	          0.00000000	          8.45318451	          0.00000000	          0.00000000	          0.00000000	          0.00000000	
          2.14800000	        -17.58851022	        661.22913479	        -41.28949041	          0.15953374	          0.00000000	          0.11103229	          0.00000000	          0.00000000	          0.00000000	          0.00000000	          0.00000000	          0.00000000	          0.00000000	          8.41248329	          0.00000000	          0.00000000	          0.00000000	          0.00000000	
          2.14900000	        -17.25504831	        660.19399764	        -41.27129717	          0.15976232	          0.00000000	          0.11118256	          0.00000000	          0.00000000	          0.00000000	          0.00000000	          0.00000000	          0.00000000	          0.00000000	          8.37078563	          0.00000000	          0.00000000	          0.00000000	          0.00000000	
          2.15000000	        -16.92472598	        659.12592315	        -41.24294106	          0.15992005	          0.00000000	          0.11130703	          0.00000000	          0.00000000	          0.00000000	          0.00000000	          0.00000000	          0.00000000	          0.00000000	          8.32654910	          0.00000000	          0.00000000	          0.00000000	          0.00000000	
          2.15100000	        -16.59375853	        658.00514700	        -41.20039706	          0.16000468	          0.00000000	          0.11137252	          0.00000000	          0.00000000	          0.00000000	          0.00000000	          0.00000000	          0.00000000	          0.00000000	          8.27848303	          0.00000000	          0.00000000	          0.00000000	          0.00000000	
          2.15200000	        -16.25833839	        656.84475900	        -41.14608269	          0.16005259	          0.00000000	          0.11137518	          0.00000000	          0.00000000	          0.00000000	          0.00000000	          0.00000000	          0.00000000	          0.00000000	          8.22570575	          0.00000000	          0.00000000	          0.00000000	          0.00000000	
          2.15300000	        -15.91118301	        655.70856604	        -41.09157760	          0.16011457	          0.00000000	          0.11134664	          0.00000000	          0.00000000	          0.00000000	          0.00000000	          0.00000000	          0.00000000	          0.00000000	          8.17178495	          0.00000000	          0.00000000	          0.00000000	          0.00000000	
          2.15400000	        -15.54328799	        654.64780767	        -41.05155592	          0.16021872	          0.00000000	          0.11132995	          0.00000000	          0.00000000	          0.00000000	          0.00000000	          0.00000000	          0.00000000	          0.00000000	          8.12559893	          0.00000000	          0.00000000	          0.00000000	          0.00000000	
          2.15500000	        -15.15110089	        653.64516643	        -41.03382287	          0.16035583	          0.00000000	          0.11135002	          0.00000000	          0.00000000	          0.00000000	          0.00000000	          0.00000000	          0.00000000	          0.00000000	          8.09360900	          0.00000000	          0.00000000	          0.00000000	          0.00000000	
          2.15600000	        -14.73773120	        652.65347822	        -41.03425865	          0.16050303	          0.00000000	          0.11140870	          0.00000000	          0.00000000	          0.00000000	          0.00000000	          0.00000000	          0.00000000	          0.00000000	          8.07258750	          0.00000000	          0.00000000	          0.00000000	          0.00000000	
          2.15700000	        -14.31374359	        651.65558329	        -41.04213756	          0.16065299	          0.00000000	          0.11149600	          0.00000000	          0.00000000	          0.00000000	          0.00000000	          0.00000000	          0.00000000	          0.00000000	          8.05265442	          0.00000000	          0.00000000	          0.00000000	          0.00000000	
          2.15800000	        -13.90011555	        650.67777189	        -41.05196620	          0.16081317	          0.00000000	          0.11160475	          0.00000000	          0.00000000	          0.00000000	          0.00000000	          0.00000000	          0.00000000	          0.00000000	          8.02695451	          0.00000000	          0.00000000	          0.00000000	          0.00000000	
          2.15900000	        -13.51889491	        649.76302070	        -41.06349234	          0.16098991	          0.00000000	          0.11173700	          0.00000000	          0.00000000	          0.00000000	          0.00000000	          0.00000000	          0.00000000	          0.00000000	          7.99551980	          0.00000000	          0.00000000	          0.00000000	          0.00000000	
          2.16000000	        -13.17553735	        648.92439934	        -41.07130969	          0.16118019	          0.00000000	          0.11188849	          0.00000000	          0.00000000	          0.00000000	          0.00000000	          0.00000000	          0.00000000	          0.00000000	          7.96039104	          0.00000000	          0.00000000	          0.00000000	          0.00000000	
          2.16100000	        -12.85573055	        648.13007915	        -41.06604429	          0.16137696	          0.00000000	          0.11203349	          0.00000000	          0.00000000	          0.00000000	          0.00000000	          0.00000000	          0.00000000	          0.00000000	          7.92153646	          0.00000000	          0.00000000	          0.00000000	          0.00000000	
